<svg width="24" height="29" viewBox="0 0 24 29" fill="none" xmlns="http://www.w3.org/2000/svg">
<g clip-path="url(#clip0_464_359)">
<path d="M-7.21489e-07 11.5138C7.20835e-05 11.8123 0.0892069 12.104 0.256 12.3516C0.422793 12.5992 0.659659 12.7914 0.936291 12.9036C1.21292 13.0158 1.51674 13.0429 1.80887 12.9815C2.101 12.92 2.36816 12.7728 2.57617 12.5587L10.0156 5.11926L10.0156 26.4982C10.0128 26.6969 10.0495 26.8943 10.1237 27.0787C10.1978 27.2632 10.3078 27.4311 10.4474 27.5726C10.587 27.7142 10.7533 27.8266 10.9366 27.9033C11.12 27.98 11.3168 28.0195 11.5156 28.0195C11.7144 28.0195 11.9112 27.98 12.0946 27.9033C12.278 27.8266 12.4443 27.7142 12.5839 27.5726C12.7234 27.4311 12.8335 27.2632 12.9076 27.0787C12.9817 26.8943 13.0184 26.6969 13.0156 26.4982L13.0156 5.11926L20.4551 12.5587C20.5933 12.7027 20.7589 12.8176 20.942 12.8968C21.1252 12.9759 21.3224 13.0178 21.5219 13.0198C21.7215 13.0218 21.9195 12.984 22.1042 12.9086C22.289 12.8332 22.4568 12.7216 22.598 12.5805C22.7391 12.4394 22.8506 12.2715 22.926 12.0868C23.0015 11.902 23.0393 11.704 23.0373 11.5045C23.0352 11.3049 22.9934 11.1078 22.9142 10.9246C22.8351 10.7414 22.7201 10.5758 22.5762 10.4376L12.5762 0.437622C12.2949 0.156423 11.9134 -0.00154166 11.5156 -0.00154164C11.1179 -0.00154162 10.7364 0.156423 10.4551 0.437622L0.455077 10.4376C0.311091 10.5774 0.196624 10.7447 0.118456 10.9296C0.0402878 11.1144 7.24862e-06 11.3131 -7.21489e-07 11.5138Z" fill="white"/>
</g>
<defs>
<clipPath id="clip0_464_359">
<rect width="28.02" height="23.04" fill="white" transform="translate(0 28.0195) rotate(-90)"/>
</clipPath>
</defs>
</svg>
