<svg width="24" height="24" viewBox="0 0 24 24" fill="none" xmlns="http://www.w3.org/2000/svg">
<path fill-rule="evenodd" clip-rule="evenodd" d="M19.9066 10.3555C20.3161 8.76791 20.0008 7.32807 19.2242 6.17912C18.3703 4.9159 16.9898 4.04441 15.5062 3.65502C14.02 3.26495 12.3662 3.34144 10.9396 4.05888C9.56568 4.74979 8.4461 6.01482 7.90726 7.91415C5.75373 8.41356 4.39788 9.90882 3.98438 11.6091C4.50277 10.7131 5.21783 10.0617 6.04137 9.64619C7.2709 9.02579 8.68249 8.95913 9.94529 9.28408C11.2051 9.60826 12.3943 10.3425 13.1513 11.4272C13.8163 12.38 14.1212 13.5704 13.8694 14.8787C14.7816 15.1586 15.4551 15.8172 15.8197 16.6132C15.9572 16.9135 16.052 17.2362 16.0997 17.5678C16.8877 17.5778 17.6102 17.5859 18.1719 17.5861C19.5948 17.6668 20.7154 17.3182 21.5046 16.6614C22.2989 16.0005 22.6968 15.0762 22.7456 14.145C22.833 12.4742 21.7868 10.7307 19.9066 10.3555Z" fill="white"/>
<path fill-rule="evenodd" clip-rule="evenodd" d="M12.8225 14.9471C13.0336 13.8904 12.7779 12.9289 12.2203 12.1594C11.5854 11.2833 10.5882 10.6903 9.5317 10.4285C8.47272 10.166 7.28897 10.2198 6.2579 10.7209C5.28345 11.1945 4.49012 12.0473 4.08561 13.2992C2.08949 13.8154 1.05888 15.5071 1.27933 17.1481C1.39415 18.0027 1.84859 18.812 2.63321 19.3799C3.41614 19.9466 4.4839 20.2434 5.79162 20.1723C6.50827 20.1333 8.07199 20.1533 9.47044 20.1711C10.1705 20.1801 10.8292 20.1885 11.3195 20.1887C12.6889 20.2621 13.7151 19.796 14.2787 18.9732C14.8281 18.1711 14.8433 17.1583 14.4579 16.348C14.1522 15.7051 13.5874 15.1731 12.8225 14.9471Z" fill="white"/>
</svg>
