<svg width="24" height="24" viewBox="0 0 24 24" fill="none" xmlns="http://www.w3.org/2000/svg">
<path fill-rule="evenodd" clip-rule="evenodd" d="M10.3249 4.49537C10.8867 5.00546 10.7482 5.78299 10.4951 6.34423L10.4946 6.3453C10.1219 7.16777 9.91751 8.06818 9.9251 9.01998L9.92512 9.02248C9.94023 12.5471 12.9829 15.5947 16.7573 15.7437C17.3133 15.7661 17.8452 15.7289 18.3611 15.6397C18.7036 15.5795 19.0384 15.569 19.3397 15.6369C19.6448 15.7056 19.9598 15.8675 20.1584 16.1813C20.3585 16.4975 20.3679 16.853 20.2926 17.159C20.2188 17.4585 20.0577 17.7488 19.8509 18.0195C18.0526 20.3949 15.0674 21.89 11.7453 21.7509C7.03467 21.5509 3.05765 17.9075 2.72787 13.3583C2.42671 9.32647 4.9057 5.83396 8.47602 4.38016C9.0485 4.14605 9.80185 4.02048 10.3249 4.49537Z" fill="white"/>
<path d="M19.9979 5.68068L20.5677 5.79433C20.5774 5.79627 20.5774 5.81017 20.5677 5.81211L19.9979 5.92576C18.9208 6.14058 18.0785 6.98194 17.8626 8.05877L17.7495 8.62259C17.7476 8.63231 17.7337 8.63231 17.7317 8.62259L17.6186 8.05877C17.4027 6.98194 16.5604 6.14058 15.4834 5.92576L14.9135 5.81211C14.9038 5.81017 14.9038 5.79627 14.9135 5.79433L15.4834 5.68068C16.5604 5.46586 17.4027 4.6245 17.6186 3.54767L17.7317 2.98385C17.7337 2.97413 17.7476 2.97413 17.7495 2.98385L17.8626 3.54767C18.0785 4.6245 18.9208 5.46586 19.9979 5.68068Z" fill="white"/>
<path fill-rule="evenodd" clip-rule="evenodd" d="M17.0653 2.85054C17.2134 2.11234 18.2687 2.1123 18.4168 2.85054L18.5299 3.41437C18.6918 4.222 19.3235 4.85302 20.1313 5.01413L20.7011 5.12778C21.4403 5.2752 21.4403 6.33212 20.7012 6.47955L20.1313 6.5932C19.3235 6.75431 18.6918 7.38533 18.5299 8.19295L18.4168 8.75678C18.2687 9.495 17.2134 9.49501 17.0653 8.75678L16.9522 8.19295C16.7903 7.38533 16.1586 6.75431 15.3508 6.5932L14.781 6.47955C14.0418 6.33212 14.0418 5.2752 14.781 5.12778L15.3508 5.01413C16.1586 4.85302 16.7903 4.222 16.9522 3.41437L17.0653 2.85054Z" fill="white"/>
<path fill-rule="evenodd" clip-rule="evenodd" d="M15.2834 9.26546C15.398 8.69278 16.2149 8.69274 16.3295 9.26546L16.4171 9.70288C16.5425 10.3294 17.0314 10.819 17.6567 10.9439L18.0978 11.0321C18.67 11.1465 18.67 11.9664 18.0978 12.0808L17.6567 12.169C17.0314 12.294 16.5425 12.7835 16.4171 13.41L16.3295 13.8474C16.2149 14.4201 15.398 14.4202 15.2834 13.8474L15.1958 13.41C15.0705 12.7835 14.5815 12.294 13.9562 12.169L13.5151 12.0808C12.9429 11.9664 12.9429 11.1465 13.5151 11.0321L13.9562 10.9439C14.5815 10.819 15.0705 10.3294 15.1958 9.70288L15.2834 9.26546Z" fill="white"/>
</svg>
