<svg width="24" height="24" viewBox="0 0 24 24" fill="none" xmlns="http://www.w3.org/2000/svg">
<g clip-path="url(#clip0_469_404)">
<path d="M13.7862 11.6739C13.721 11.4945 13.5453 11.393 13.3573 11.4262C12.3714 11.5911 9.36206 12.2484 8.16466 14.3468C7.18691 16.0403 7.66517 18.1593 9.23676 19.0666C10.8083 19.974 12.8804 19.3325 13.8581 17.6389C15.0521 15.5791 14.1306 12.6119 13.7862 11.6739Z" fill="white"/>
<path fill-rule="evenodd" clip-rule="evenodd" d="M13.2242 10.688C13.7689 10.5937 14.2945 10.8979 14.484 11.4176C14.6673 11.9171 15.0045 12.9555 15.1377 14.1539C15.2696 15.3394 15.2137 16.785 14.5006 18.0156C13.343 20.02 10.8308 20.858 8.85502 19.7172C6.87859 18.5761 6.35185 15.978 7.50747 13.9745C8.22107 12.7252 9.44123 11.9517 10.5337 11.4751C11.6357 10.9944 12.6995 10.7759 13.2242 10.688Z" fill="white"/>
<path d="M7.8515 4.70977C7.79995 4.56789 7.66092 4.48762 7.51227 4.51392C6.73255 4.64434 4.35252 5.16417 3.40552 6.82369C2.63223 8.16307 3.01048 9.83895 4.25342 10.5566C5.49635 11.2742 7.13509 10.7668 7.90838 9.42742C8.85263 7.79835 8.1239 5.45164 7.8515 4.70977Z" fill="white"/>
<path fill-rule="evenodd" clip-rule="evenodd" d="M8.55706 4.45353C8.70436 4.8549 8.97536 5.68914 9.08267 6.65408C9.18854 7.60605 9.14689 8.78888 8.55861 9.80414C7.60544 11.4543 5.52661 12.1581 3.8795 11.2072C2.23172 10.2558 1.80499 8.10077 2.75614 6.45141C3.34454 5.4215 4.34476 4.79206 5.22284 4.40903C6.11051 4.02182 6.96554 3.84634 7.38709 3.7757C7.89248 3.68842 8.38123 3.97138 8.55706 4.45353Z" fill="white"/>
<path d="M21.2688 8.07147C21.2246 7.94987 21.1055 7.88107 20.9781 7.90361C20.3098 8.01539 18.2699 8.46094 17.4582 9.8833C16.7954 11.0313 17.1196 12.4677 18.1849 13.0827C19.2502 13.6978 20.6548 13.2629 21.3176 12.1149C22.1269 10.7187 21.5023 8.70732 21.2688 8.07147Z" fill="white"/>
<path fill-rule="evenodd" clip-rule="evenodd" d="M21.9666 7.81523C22.0944 8.1636 22.3296 8.88749 22.4229 9.72624C22.5147 10.5519 22.4808 11.5926 21.9602 12.4914C21.1176 13.9504 19.2728 14.5818 17.8032 13.7333C16.333 12.8845 15.9603 10.969 16.801 9.51102C17.3217 8.5997 18.2031 8.04812 18.9653 7.71563C19.7371 7.37895 20.4793 7.2267 20.8451 7.16538C21.3293 7.0819 21.7981 7.35338 21.9666 7.81523Z" fill="white"/>
</g>
<defs>
<clipPath id="clip0_469_404">
<rect width="24" height="24" fill="white"/>
</clipPath>
</defs>
</svg>
