<svg width="24" height="24" viewBox="0 0 24 24" fill="none" xmlns="http://www.w3.org/2000/svg">
<path fill-rule="evenodd" clip-rule="evenodd" d="M20.2281 10.4757C21.0093 11.5633 21.3399 12.926 20.9651 14.4267C22.8229 14.8321 23.8567 16.5053 23.7589 18.1132C23.7037 19.0191 23.292 19.9153 22.4802 20.5539C21.6751 21.1872 20.5427 21.5169 19.1205 21.4406C18.4199 21.4404 17.4708 21.4285 16.4582 21.4158C14.4259 21.3904 12.1378 21.3617 11.0904 21.4177C9.24316 21.5163 7.76166 21.1023 6.68907 20.3358C5.61397 19.5676 4.99428 18.4745 4.84212 17.3196C4.54656 15.0764 6.01205 12.7641 8.85577 12.1112C9.40599 10.3185 10.5288 9.11917 11.903 8.46189C13.3376 7.77573 14.9957 7.70232 16.4844 8.07133C17.9699 8.43958 19.3601 9.26709 20.2281 10.4757Z" fill="white"/>
<path fill-rule="evenodd" clip-rule="evenodd" d="M4.67861 2.91983C5.06355 2.76689 5.49959 2.95496 5.65254 3.3399L6.08542 4.42937C6.23836 4.81431 6.0503 5.25035 5.66535 5.4033C5.28041 5.55625 4.84437 5.36818 4.69142 4.98324L4.25855 3.89377C4.1056 3.50883 4.29367 3.07278 4.67861 2.91983ZM10.362 3.05199C10.7433 3.2139 10.9211 3.65422 10.7592 4.03548L10.3263 5.05479C10.1644 5.43605 9.72404 5.61387 9.34279 5.45196C8.96153 5.29005 8.78371 4.84972 8.94562 4.46846L9.3785 3.44915C9.54041 3.06789 9.98074 2.89007 10.362 3.05199ZM5.92364 6.06403C7.49111 5.43183 9.21359 5.84175 10.3398 6.96048L11.0013 7.61766L10.1628 8.15825C9.25523 8.74333 8.60441 9.65194 8.34251 10.6995L8.22224 11.1806L7.67407 11.3633C6.88302 11.627 6.15272 12.0463 5.5262 12.5966L4.85038 13.1901L4.35597 12.6192C4.05934 12.2767 3.81473 11.8796 3.63864 11.4364C2.79821 9.32121 3.81537 6.91434 5.92364 6.06403ZM0.65213 6.96523C0.816352 6.58496 1.25775 6.40982 1.63802 6.57404L2.64944 7.01084C3.02971 7.17506 3.20485 7.61645 3.04063 7.99672C2.87641 8.37699 2.43501 8.55213 2.05474 8.38791L1.04332 7.95112C0.663048 7.78689 0.487908 7.3455 0.65213 6.96523ZM2.9531 11.7171C3.10804 12.1012 2.92223 12.5382 2.53808 12.6931L1.49901 13.1122C1.11487 13.2672 0.677857 13.0813 0.522923 12.6972C0.367988 12.3131 0.5538 11.876 0.937946 11.7211L1.97701 11.302C2.36116 11.1471 2.79817 11.3329 2.9531 11.7171Z" fill="#FAD803"/>
</svg>
