<svg width="24" height="24" viewBox="0 0 24 24" fill="none" xmlns="http://www.w3.org/2000/svg">
<path fill-rule="evenodd" clip-rule="evenodd" d="M16.5985 12.027C15.1736 11.6167 13.6432 11.8029 12.3583 12.5429C10.6224 13.5426 8.53485 13.7293 6.64899 13.0536L4.26345 12.1988C3.90979 12.072 3.72583 11.6826 3.85256 11.3289C3.97928 10.9753 4.36871 10.7913 4.72237 10.9181L7.10791 11.7729C8.61792 12.314 10.2894 12.1644 11.6794 11.364C13.2841 10.4398 15.1954 10.2073 16.9749 10.7197L19.1925 11.3582C19.5535 11.4622 19.7619 11.8391 19.658 12.2001C19.554 12.5611 19.1771 12.7695 18.8161 12.6655L16.5985 12.027Z" fill="white"/>
<path fill-rule="evenodd" clip-rule="evenodd" d="M17.7878 17.4552C15.9809 17.0382 14.0614 17.2419 12.373 18.0184C10.2556 18.9922 7.832 19.1877 5.58747 18.5443L2.49295 17.6572C2.13182 17.5537 1.92299 17.177 2.02651 16.8159C2.13004 16.4547 2.50671 16.2459 2.86784 16.3494L5.96236 17.2365C7.88985 17.7891 9.97895 17.622 11.8046 16.7824C13.7629 15.8818 15.9896 15.6441 18.0937 16.1296L20.9726 16.794C21.3386 16.8785 21.5669 17.2437 21.4824 17.6097C21.398 17.9758 21.0327 18.2041 20.6667 18.1196L17.7878 17.4552Z" fill="white"/>
<path fill-rule="evenodd" clip-rule="evenodd" d="M17.7878 6.57242C15.9809 6.15543 14.0614 6.3591 12.373 7.13559C10.2556 8.10938 7.832 8.3049 5.58747 7.66147L2.49295 6.77437C2.13182 6.67085 1.92299 6.29417 2.02651 5.93304C2.13004 5.57191 2.50671 5.36308 2.86784 5.4666L5.96236 6.3537C7.88985 6.90624 9.97895 6.73918 11.8046 5.89959C13.7629 4.99897 15.9896 4.76125 18.0937 5.24682L20.9726 5.91117C21.3386 5.99564 21.5669 6.36087 21.4824 6.72692C21.398 7.09298 21.0327 7.32124 20.6667 7.23677L17.7878 6.57242Z" fill="white"/>
</svg>
