<svg width="24" height="24" viewBox="0 0 24 24" fill="none" xmlns="http://www.w3.org/2000/svg">
<path fill-rule="evenodd" clip-rule="evenodd" d="M20.2203 10.296C21.0015 11.3836 21.3321 12.7464 20.9572 14.247C22.8151 14.6524 23.8489 16.3256 23.751 17.9335C23.6959 18.8394 23.2842 19.7357 22.4724 20.3742C21.6673 21.0076 20.5349 21.3372 19.1127 21.2609C18.4121 21.2607 17.463 21.2488 16.4504 21.2361C14.418 21.2107 12.1299 21.1821 11.0826 21.238C9.23535 21.3366 7.75384 20.9226 6.68126 20.1561C5.60616 19.3879 4.98647 18.2948 4.83431 17.1399C4.53874 14.8967 6.00424 12.5844 8.84796 11.9315C9.39818 10.1388 10.521 8.93948 11.8952 8.2822C13.3298 7.59605 14.9879 7.52263 16.4766 7.89164C17.9621 8.25989 19.3523 9.0874 20.2203 10.296Z" fill="white"/>
<path fill-rule="evenodd" clip-rule="evenodd" d="M6.12977 3.27434C5.69475 3.7367 5.87797 4.34712 6.05402 4.68967L6.05456 4.69071C6.28015 5.12781 6.41929 5.61281 6.44802 6.13365L6.44816 6.1361C6.56152 8.06545 5.05043 9.82966 3.06867 10.0357C2.77502 10.0664 2.49261 10.0638 2.2171 10.0323L2.21933 10.0325C1.99513 10.0062 1.75749 10.0099 1.53411 10.0769C1.30519 10.1455 1.0549 10.2945 0.907545 10.5727C0.760769 10.8498 0.77758 11.139 0.84661 11.3647C0.914106 11.5853 1.04044 11.7835 1.18432 11.9544C1.84513 12.7458 2.72147 13.3505 3.71748 13.6905C3.98353 13.7813 4.27807 13.7014 4.46181 13.4887L4.61197 13.3148C5.24557 12.5812 6.08545 12.0554 7.02217 11.806L7.64335 11.6406C7.86845 11.5807 8.04805 11.4111 8.12081 11.1898L8.33782 10.5298C8.6541 9.56789 9.26497 8.72986 10.0839 8.13438L10.8458 7.58038C11.0799 7.41023 11.1827 7.11204 11.1033 6.8338C10.5959 5.05478 9.22964 3.66155 7.50653 3.06154C7.14729 2.93593 6.54295 2.83521 6.12977 3.27434Z" fill="white"/>
</svg>
