<svg width="24" height="24" viewBox="0 0 24 24" fill="none" xmlns="http://www.w3.org/2000/svg">
<path fill-rule="evenodd" clip-rule="evenodd" d="M4.9711 1.24415C5.30897 1.11661 5.68286 1.29639 5.80622 1.64571L6.14338 2.60041C6.26674 2.94973 6.09285 3.3363 5.75498 3.46384C5.41712 3.59138 5.04322 3.4116 4.91986 3.06228L4.58271 2.10758C4.45935 1.75826 4.63324 1.37169 4.9711 1.24415ZM9.74883 1.4979C10.0758 1.65283 10.2194 2.05247 10.0696 2.39054L9.68269 3.26334C9.53284 3.60141 9.1463 3.74987 8.81932 3.59494C8.49234 3.44002 8.34874 3.04037 8.49859 2.70231L8.88546 1.8295C9.03531 1.49144 9.42185 1.34298 9.74883 1.4979ZM5.94046 3.99936C7.27795 3.48635 8.72143 3.88623 9.64494 4.88962L10.2031 5.49609L9.5105 5.92974C8.71294 6.42909 8.1218 7.24043 7.86896 8.17372L7.77253 8.52964L7.33737 8.66568C6.6443 8.88235 6.00016 9.24022 5.4429 9.71821L4.87757 10.2031L4.46236 9.67831C4.22022 9.37227 4.02329 9.0199 3.88528 8.62909C3.22651 6.76369 4.1416 4.68934 5.94046 3.99936ZM1.4881 4.66378C1.63993 4.32666 2.02734 4.18063 2.3534 4.3376L3.19089 4.74079C3.51695 4.89776 3.6582 5.2983 3.50637 5.63542C3.35454 5.97254 2.96713 6.11857 2.64107 5.9616L1.80358 5.55841C1.47751 5.40143 1.33627 5.00089 1.4881 4.66378ZM3.34599 8.83961C3.4711 9.18826 3.29914 9.57575 2.96192 9.7051L2.08108 10.043C1.74386 10.1723 1.36907 9.99452 1.24397 9.64586C1.11886 9.29721 1.29082 8.90972 1.62804 8.78037L2.50887 8.44252C2.8461 8.31317 3.22089 8.49095 3.34599 8.83961Z" fill="#FAD803"/>
<path fill-rule="evenodd" clip-rule="evenodd" d="M19.9854 11.6339C20.3178 10.1917 19.9939 8.88114 19.2506 7.83566C18.4185 6.66537 17.0954 5.86862 15.6874 5.51512C14.2761 5.1608 12.7031 5.23211 11.3394 5.89626C10.038 6.53003 8.97202 7.68388 8.44297 9.40409C5.75804 10.0491 4.36003 12.2908 4.64606 14.4814C4.79353 15.6108 5.3895 16.6766 6.41723 17.4237C7.44203 18.1686 8.85184 18.5673 10.6016 18.4722C11.5869 18.4186 13.7389 18.446 15.6531 18.4704C16.6078 18.4826 17.5033 18.494 18.1655 18.4943C19.5117 18.5676 20.5918 18.251 21.365 17.6345C22.1457 17.012 22.5455 16.1357 22.6023 15.2471C22.7024 13.6813 21.7303 12.0572 19.9854 11.6339Z" fill="white"/>
<path fill-rule="evenodd" clip-rule="evenodd" d="M13.3692 19.9739C13.7306 20.1763 13.8595 20.6333 13.6571 20.9947L13.1108 21.9702C12.9084 22.3316 12.4513 22.4605 12.0899 22.2581C11.7285 22.0557 11.5996 21.5986 11.802 21.2372L12.3483 20.2618C12.5507 19.9004 13.0078 19.7715 13.3692 19.9739Z" fill="#0085FF"/>
<path fill-rule="evenodd" clip-rule="evenodd" d="M19.6661 19.9739C20.0274 20.1763 20.1563 20.6333 19.9539 20.9947L19.4076 21.9702C19.2052 22.3316 18.7482 22.4605 18.3868 22.2581C18.0254 22.0557 17.8965 21.5986 18.0989 21.2372L18.6452 20.2618C18.8476 19.9004 19.3047 19.7715 19.6661 19.9739Z" fill="#0085FF"/>
<path fill-rule="evenodd" clip-rule="evenodd" d="M8.40625 20.5C8.40625 19.9477 8.85397 19.5 9.40625 19.5H9.41625C9.96853 19.5 10.4162 19.9477 10.4162 20.5C10.4162 21.0523 9.96853 21.5 9.41625 21.5H9.40625C8.85397 21.5 8.40625 21.0523 8.40625 20.5Z" fill="#0085FF"/>
<path fill-rule="evenodd" clip-rule="evenodd" d="M14.8047 22C14.8047 21.4477 15.2524 21 15.8047 21H15.8147C16.367 21 16.8147 21.4477 16.8147 22C16.8147 22.5523 16.367 23 15.8147 23H15.8047C15.2524 23 14.8047 22.5523 14.8047 22Z" fill="#0085FF"/>
</svg>
