<svg width="24" height="24" viewBox="0 0 24 24" fill="none" xmlns="http://www.w3.org/2000/svg">
<path fill-rule="evenodd" clip-rule="evenodd" d="M18.8492 9.55537C19.2539 7.94803 18.9253 6.48926 18.1257 5.32154C17.2411 4.02966 15.8132 3.13712 14.2772 2.73844C12.7389 2.33914 11.0245 2.41749 9.54379 3.15541C8.12238 3.86379 6.97221 5.15349 6.41433 7.07355C3.46746 7.77149 1.99062 10.249 2.28743 12.6037C2.44073 13.8198 3.06743 14.981 4.17 15.8025C5.27192 16.6235 6.79924 17.0699 8.70704 16.9637C9.78651 16.9036 12.1447 16.9344 14.2397 16.9617C15.2836 16.9753 16.2622 16.9881 16.9847 16.9883C18.4561 17.0706 19.6238 16.7137 20.4491 16.0356C21.2782 15.3544 21.6904 14.4061 21.7441 13.4567C21.8392 11.7728 20.7894 9.97378 18.8492 9.55537Z" fill="white"/>
<path fill-rule="evenodd" clip-rule="evenodd" d="M8.67162 17.899C9.03117 18.1046 9.15591 18.5628 8.95024 18.9224L7.83997 20.8633C7.6343 21.2229 7.17611 21.3476 6.81656 21.1419C6.45701 20.9363 6.33227 20.4781 6.53794 20.1185L7.64821 18.1776C7.85388 17.818 8.31208 17.6933 8.67162 17.899Z" fill="#0085FF"/>
<path fill-rule="evenodd" clip-rule="evenodd" d="M14.2732 17.9927C14.6327 18.1984 14.7575 18.6566 14.5518 19.0161L13.4415 20.9571C13.2359 21.3166 12.7777 21.4414 12.4181 21.2357C12.0586 21.03 11.9338 20.5718 12.1395 20.2123L13.2498 18.2713C13.4554 17.9118 13.9136 17.787 14.2732 17.9927Z" fill="#0085FF"/>
<path fill-rule="evenodd" clip-rule="evenodd" d="M10.8926 19.1536C11.254 19.356 11.3829 19.813 11.1805 20.1744L10.6342 21.1499C10.4318 21.5113 9.97475 21.6402 9.61335 21.4378C9.25195 21.2354 9.12306 20.7783 9.32546 20.4169L9.87177 19.4414C10.0742 19.0801 10.5312 18.9512 10.8926 19.1536Z" fill="#0085FF"/>
<path fill-rule="evenodd" clip-rule="evenodd" d="M16.7676 19.2707C17.129 19.4731 17.2579 19.9302 17.0555 20.2916L16.5092 21.2671C16.3068 21.6285 15.8497 21.7573 15.4883 21.5549C15.127 21.3525 14.9981 20.8955 15.2005 20.5341L15.7468 19.5586C15.9492 19.1972 16.4062 19.0683 16.7676 19.2707Z" fill="#0085FF"/>
</svg>
