<svg width="24" height="24" viewBox="0 0 24 24" fill="none" xmlns="http://www.w3.org/2000/svg">
<g clip-path="url(#clip0_472_419)">
<path fill-rule="evenodd" clip-rule="evenodd" d="M20.6964 12.0792C21.0288 10.637 20.7048 9.32645 19.9615 8.28097C19.1295 7.11068 17.8064 6.31393 16.3984 5.96043C14.9871 5.60612 13.4141 5.67743 12.0503 6.34157C10.7489 6.97534 9.68296 8.1292 9.15391 9.8494C6.46898 10.4944 5.07097 12.7361 5.35699 14.9267C5.50447 16.0561 6.10044 17.1219 7.12816 17.869C8.15296 18.6139 9.56278 19.0126 11.3125 18.9175C12.2978 18.8639 14.4498 18.8913 16.364 18.9158C17.3187 18.9279 18.2143 18.9394 18.8764 18.9396C20.2227 19.0129 21.3027 18.6964 22.0759 18.0798C22.8566 17.4574 23.2565 16.581 23.3133 15.6924C23.4133 14.1266 22.4413 12.5025 20.6964 12.0792Z" fill="white"/>
<path fill-rule="evenodd" clip-rule="evenodd" d="M6.63861 1.08837C6.173 1.49177 6.37476 2.31275 6.53354 2.63625L6.53402 2.63723C6.73759 3.05008 6.85107 3.50268 6.85097 3.98275L6.85097 3.98501C6.85754 5.76369 5.23134 7.31028 3.21662 7.40163C2.91807 7.41537 2.63276 7.39898 2.35603 7.35641L2.35827 7.35676C2.13312 7.32144 1.8927 7.31315 1.66316 7.36364C1.42792 7.41539 1.16658 7.53995 1.00206 7.78829C0.838183 8.03566 0.838981 8.30234 0.896126 8.5131C0.952002 8.71918 1.0686 8.90762 1.20447 9.07175C1.82812 9.83173 2.86066 10.7708 3.8484 11.1324C4.11225 11.229 4.41444 11.1702 4.61209 10.9838L4.7736 10.8314C5.45513 10.1885 6.15296 9.40693 7.11377 9.22402L7.75093 9.10273C7.98182 9.05877 8.17285 8.91182 8.25879 8.71206L8.51509 8.11625C8.88864 7.24789 9.55304 6.50794 10.4142 6.00119L11.2154 5.52974C11.4614 5.38493 11.5821 5.11599 11.5174 4.85636C11.1041 3.19635 9.75032 1.59748 8.04217 0.960877C7.68608 0.827678 7.08083 0.705235 6.63861 1.08837Z" fill="white"/>
<path fill-rule="evenodd" clip-rule="evenodd" d="M14.0801 20.4192C14.4415 20.6216 14.5704 21.0786 14.368 21.44L13.8217 22.4155C13.6193 22.7769 13.1622 22.9058 12.8008 22.7034C12.4395 22.501 12.3106 22.0439 12.513 21.6825L13.0593 20.7071C13.2617 20.3457 13.7187 20.2168 14.0801 20.4192Z" fill="#0085FF"/>
<path fill-rule="evenodd" clip-rule="evenodd" d="M20.3848 20.4192C20.7462 20.6216 20.8751 21.0786 20.6727 21.44L20.1264 22.4155C19.924 22.7769 19.4669 22.9058 19.1055 22.7034C18.7441 22.501 18.6152 22.0439 18.8176 21.6825L19.364 20.7071C19.5664 20.3457 20.0234 20.2168 20.3848 20.4192Z" fill="#0085FF"/>
<path fill-rule="evenodd" clip-rule="evenodd" d="M9.11719 20.9453C9.11719 20.393 9.5649 19.9453 10.1172 19.9453H10.1272C10.6795 19.9453 11.1272 20.393 11.1272 20.9453C11.1272 21.4976 10.6795 21.9453 10.1272 21.9453H10.1172C9.5649 21.9453 9.11719 21.4976 9.11719 20.9453Z" fill="#0085FF"/>
<path fill-rule="evenodd" clip-rule="evenodd" d="M15.5156 22.4453C15.5156 21.893 15.9633 21.4453 16.5156 21.4453H16.5256C17.0779 21.4453 17.5256 21.893 17.5256 22.4453C17.5256 22.9976 17.0779 23.4453 16.5256 23.4453H16.5156C15.9633 23.4453 15.5156 22.9976 15.5156 22.4453Z" fill="#0085FF"/>
</g>
<defs>
<clipPath id="clip0_472_419">
<rect width="24" height="24" fill="white"/>
</clipPath>
</defs>
</svg>
