<svg width="24" height="24" viewBox="0 0 24 24" fill="none" xmlns="http://www.w3.org/2000/svg">
<path fill-rule="evenodd" clip-rule="evenodd" d="M11.9562 2.35156C12.328 2.35156 12.6293 2.65291 12.6293 3.02463V4.74749L13.6694 3.49255C13.9066 3.20635 14.3309 3.16663 14.6171 3.40384C14.9033 3.64105 14.9431 4.06536 14.7058 4.35156L12.6293 6.857V10.8299L16.0365 8.85205L17.1695 5.75488C17.2973 5.40578 17.6838 5.22631 18.0329 5.35402C18.382 5.48173 18.5615 5.86826 18.4337 6.21736L17.8564 7.79563L19.3481 6.92968C19.6696 6.74306 20.0815 6.85239 20.2681 7.17387C20.4547 7.49536 20.3454 7.90726 20.0239 8.09388L18.5742 8.93543L20.1483 9.20895C20.5145 9.27259 20.7598 9.62108 20.6962 9.98732C20.6325 10.3536 20.2841 10.5989 19.9178 10.5352L16.7628 9.98696L13.2737 12.0124L16.8919 14.1127L19.9616 13.5793C20.3278 13.5157 20.6763 13.761 20.74 14.1272C20.8036 14.4935 20.5583 14.8419 20.1921 14.9056L18.7034 15.1643L20.0874 15.9677C20.4089 16.1543 20.5182 16.5662 20.3316 16.8877C20.1449 17.2092 19.733 17.3185 19.4116 17.1319L17.8702 16.2372L18.4775 17.8972C18.6052 18.2463 18.4258 18.6328 18.0767 18.7605C17.7276 18.8882 17.341 18.7087 17.2133 18.3596L16.0504 15.1807L12.6293 13.1948V17.1408L14.7058 19.6462C14.9431 19.9324 14.9033 20.3567 14.6171 20.5939C14.3309 20.8311 13.9066 20.7914 13.6694 20.5052L12.6293 19.2503V20.9731C12.6293 21.3448 12.328 21.6462 11.9562 21.6462C11.5845 21.6462 11.2832 21.3448 11.2832 20.9731V19.2503L10.243 20.5052C10.0058 20.7914 9.58152 20.8311 9.29532 20.5939C9.00912 20.3567 8.9694 19.9324 9.20661 19.6462L11.2832 17.1408V13.1679L7.88978 15.1377L6.78668 18.1531C6.65897 18.5022 6.27244 18.6817 5.92334 18.554C5.57424 18.4262 5.39477 18.0397 5.52248 17.6906L6.06994 16.1941L4.56432 17.0681C4.24284 17.2547 3.83094 17.1454 3.64432 16.8239C3.4577 16.5024 3.56703 16.0905 3.88851 15.9039L5.46739 14.9874L3.80795 14.699C3.44171 14.6354 3.19641 14.2869 3.26005 13.9207C3.32369 13.5544 3.67218 13.3091 4.03841 13.3728L7.27883 13.9359L10.5924 12.0124L7.12403 9.99902L4.03841 10.5352C3.67218 10.5989 3.32369 10.3536 3.26005 9.98732C3.19641 9.62108 3.44171 9.27259 3.80795 9.20895L5.3126 8.94749L3.95195 8.15764C3.63047 7.97102 3.52114 7.55912 3.70776 7.23763C3.89438 6.91615 4.30628 6.80682 4.62776 6.99344L6.12417 7.86209L5.52248 6.21736C5.39477 5.86826 5.57424 5.48173 5.92334 5.35402C6.27244 5.22631 6.65897 5.40578 6.78668 5.75488L7.94401 8.91851L11.2832 10.8569V6.857L9.20661 4.35156C8.9694 4.06536 9.00912 3.64105 9.29532 3.40384C9.58152 3.16663 10.0058 3.20635 10.243 3.49255L11.2832 4.7475V3.02463C11.2832 2.65291 11.5845 2.35156 11.9562 2.35156Z" fill="white"/>
</svg>
