<svg width="24" height="24" viewBox="0 0 24 24" fill="none" xmlns="http://www.w3.org/2000/svg">
<path fill-rule="evenodd" clip-rule="evenodd" d="M19.1652 8.72884C19.6094 7.0736 19.2674 5.57246 18.425 4.37459C17.4989 3.05761 16.0016 2.14903 14.3925 1.74306C12.7805 1.3364 10.9868 1.41614 9.43945 2.16411C7.94931 2.88443 6.735 4.20329 6.15056 6.18345C3.2126 6.83829 1.64116 9.13545 1.75586 11.4429C1.87642 13.8681 3.83248 16.0375 7.36968 16.2416L7.38962 16.2428L8.89703 16.2455C8.92633 16.197 8.95913 16.1495 8.99558 16.1033L8.99909 16.0988L12.5698 11.6373L12.5706 11.6363C12.9554 11.1535 13.5557 11.0438 14.0446 11.2467C14.5218 11.4447 14.8599 11.9205 14.8599 12.4986V15.4853H15.568C16.144 15.4853 16.5569 15.8506 16.7422 16.2597L18.209 16.2623L18.2358 16.2604C19.5685 16.1625 20.5967 15.6815 21.2867 14.9442C21.9734 14.2103 22.2754 13.2743 22.2483 12.3615C22.1998 10.723 21.0793 9.09649 19.1652 8.72884Z" fill="white"/>
<path fill-rule="evenodd" clip-rule="evenodd" d="M7.86694 18.3521C8.22648 18.5578 8.35122 19.016 8.14556 19.3755L7.03528 21.3165C6.82962 21.676 6.37142 21.8007 6.01187 21.5951C5.65233 21.3894 5.52758 20.9312 5.73325 20.5717L6.84353 18.6307C7.04919 18.2712 7.50739 18.1464 7.86694 18.3521Z" fill="#0085FF"/>
<path fill-rule="evenodd" clip-rule="evenodd" d="M18.8669 18.3521C19.2265 18.5578 19.3512 19.016 19.1456 19.3755L18.0353 21.3165C17.8296 21.676 17.3714 21.8007 17.0119 21.5951C16.6523 21.3894 16.5276 20.9312 16.7333 20.5717L17.8435 18.6307C18.0492 18.2712 18.5074 18.1464 18.8669 18.3521Z" fill="#0085FF"/>
<path fill-rule="evenodd" clip-rule="evenodd" d="M4.56449 17.6223C4.92589 17.8247 5.05478 18.2818 4.85238 18.6432L4.30607 19.6186C4.10367 19.98 3.64662 20.1089 3.28522 19.9065C2.92383 19.7041 2.79494 19.2471 2.99734 18.8857L3.54365 17.9102C3.74605 17.5488 4.20309 17.4199 4.56449 17.6223Z" fill="#0085FF"/>
<path fill-rule="evenodd" clip-rule="evenodd" d="M13.4103 12.9531L10.3984 16.7164H11.5037C11.9179 16.7164 12.2537 17.0522 12.2537 17.4664V20.6511L15.2655 16.8878H14.1603C13.7461 16.8878 13.4103 16.552 13.4103 16.1378V12.9531Z" fill="#FAD803"/>
</svg>
